<?xml version="1.0" encoding="UTF-8"?>
<svg version="1.1" xmlns="http://www.w3.org/2000/svg" width="500" height="766">
<path d="M0 0 C118.14 0 236.28 0 358 0 C358 34.65 358 69.3 358 105 C280.78 105 203.56 105 124 105 C124 157.8 124 210.6 124 265 C138.55480469 264.96519531 153.10960937 264.93039062 168.10546875 264.89453125 C177.35221515 264.87919415 186.59895227 264.86462706 195.84570312 264.85351562 C210.50727508 264.8357553 225.16879509 264.81494304 239.83032227 264.77368164 C250.51101054 264.74363788 261.19165644 264.72439168 271.8723858 264.71773452 C277.51981217 264.71384747 283.16711736 264.7048098 288.81450462 264.68280983 C294.14719509 264.66220721 299.47971629 264.6562134 304.81244278 264.66067696 C306.75321312 264.65986225 308.69399007 264.65403999 310.63472557 264.64238358 C361.31941364 264.35330278 407.91441444 283.49012576 444 319 C475.33989499 350.25259723 498.05313877 396.00386188 498.12908131 440.72212458 C498.12616847 441.99061668 498.12325563 443.25910878 498.12025452 444.56604004 C498.12069105 445.9423784 498.12156746 447.31871669 498.12284368 448.69505453 C498.12507255 452.46231295 498.12108942 456.22954278 498.11606562 459.99679756 C498.11173817 464.06486126 498.11320917 468.13292341 498.1139679 472.20098877 C498.11449168 479.244292 498.11136011 486.28758595 498.10573006 493.33088684 C498.09759531 503.51425722 498.09499781 513.69762313 498.09374207 523.88099641 C498.09155465 540.40373973 498.08490298 556.92647811 498.07543945 573.44921875 C498.06625731 589.49739558 498.05918039 605.54557107 498.05493164 621.59375 C498.05466892 622.58333074 498.05440619 623.57291149 498.05413551 624.59247953 C498.05283045 629.5570261 498.05156675 634.52157268 498.05032361 639.48611927 C498.03996067 680.65741629 498.02235079 721.82870786 498 763 C455.96929179 763.09173889 413.93859523 763.16213154 371.90780657 763.20426132 C366.93536372 763.2092636 361.96292107 763.21444094 356.99047852 763.21972656 C355.50571615 763.22130043 355.50571615 763.22130043 353.99095858 763.22290608 C338.00504606 763.24026789 322.01919162 763.27178207 306.03331345 763.30861118 C289.60621574 763.34613859 273.17914826 763.36826068 256.75200945 763.37635398 C246.63170034 763.38181739 236.51155544 763.39901491 226.39129693 763.43166587 C219.43284382 763.45295978 212.47447446 763.45916676 205.5159912 763.45400551 C201.51312785 763.45146662 197.51054956 763.45510184 193.50773811 763.4768219 C162.7322559 763.6353023 134.88044245 759.49389958 107 746 C106.25250488 745.63922363 105.50500977 745.27844727 104.73486328 744.90673828 C59.773527 722.90596834 25.86352177 685.25344403 9.01904297 638.06445312 C3.59312484 622.1215588 -0.19380537 605.27743452 -0.11352539 588.38085938 C-0.11367142 587.56039124 -0.11381744 586.7399231 -0.1139679 585.89459229 C-0.11327706 583.2109503 -0.10552389 580.5273797 -0.09765625 577.84375 C-0.09578912 575.97188352 -0.09436661 574.10001656 -0.09336853 572.22814941 C-0.08956659 567.32257721 -0.07975632 562.41703503 -0.06866455 557.51147461 C-0.0584003 552.4972372 -0.0538602 547.4829949 -0.04882812 542.46875 C-0.0381318 532.64582021 -0.02108352 522.82291261 0 513 C13.54264178 512.9768794 27.0852789 512.95908636 40.62793636 512.94818783 C46.91562024 512.94295838 53.20329066 512.93585961 59.4909668 512.92456055 C65.55337723 512.91373386 71.61577469 512.90772363 77.67819405 512.90512276 C79.99676277 512.90326811 82.31533074 512.89964675 84.63389397 512.89426994 C87.86914508 512.88706242 91.10434183 512.88600894 94.33959961 512.88647461 C95.79292191 512.8810817 95.79292191 512.8810817 97.27560425 512.87557983 C98.15205093 512.8769545 99.02849762 512.87832916 99.9315033 512.87974548 C101.08051825 512.87836279 101.08051825 512.87836279 102.25274563 512.87695217 C104 513 104 513 105 514 C105.10316632 516.28217563 105.13574375 518.56755266 105.1418457 520.85205078 C105.14532013 521.56937378 105.14879456 522.28669678 105.15237427 523.02575684 C105.15974835 524.59121036 105.16508488 526.15667446 105.16866493 527.72214127 C105.1758327 530.2131923 105.19150874 532.70404659 105.21000671 535.19503784 C105.26240947 542.28087391 105.31028961 549.36661179 105.32592773 556.45263672 C105.33611635 560.78529807 105.36572774 565.11747787 105.40724754 569.44994736 C105.41942741 571.08983559 105.42470305 572.72979236 105.42244911 574.36972427 C105.40829539 588.05067849 107.12968839 600.82040605 113.625 613.125 C113.96563477 613.78258301 114.30626953 614.44016602 114.65722656 615.11767578 C125.21385346 634.80089145 141.47954938 647.24929679 162.4375 654.375 C177.2466621 658.37138937 192.3854987 658.27548604 207.59765625 658.15625 C209.6938497 658.14732635 211.79004653 658.13916812 213.88624573 658.13171387 C220.59096997 658.10363493 227.29543398 658.05304476 234 658 C236.24810743 657.98333301 238.49621534 657.96673132 240.74432373 657.95019531 C258.15582617 657.81892183 275.56684262 657.64275734 292.97790527 657.46356201 C300.06120338 657.39085452 307.14451765 657.32030168 314.2278614 657.25218201 C317.4039204 657.22088971 320.57993909 657.18681464 323.75596619 657.15246582 C347.16986027 656.91674935 370.58522483 656.9794352 394 657 C393.91588688 630.86018092 393.82067607 604.72042228 393.71247292 578.58069134 C393.66248054 566.44190908 393.61603675 554.30313313 393.578125 542.16430664 C393.54504856 531.57662574 393.50513247 520.98899578 393.45720994 510.4013713 C393.4320996 504.80213121 393.41027382 499.20292423 393.39665604 493.60364342 C393.38369386 488.3185492 393.36149165 483.03356944 393.33261681 477.74853897 C393.32365033 475.82307624 393.31787687 473.89759513 393.31578636 471.97211266 C393.28078984 444.60052632 391.26421849 418.29203096 372 397 C371.33484375 396.24203125 370.6696875 395.4840625 369.984375 394.703125 C356.94646048 380.69943904 338.604895 372.27701181 319.59659696 370.72148573 C316.079226 370.61038451 312.57319151 370.58723801 309.05410767 370.60127258 C307.71292052 370.59582284 306.37173816 370.58907026 305.03056335 370.58114624 C301.38094543 370.56328578 297.73153252 370.56368548 294.08188131 370.56728305 C290.0722934 370.56787699 286.06276952 370.55103999 282.05321312 370.53649426 C274.2870599 370.5108851 266.5209617 370.50042868 258.75477084 370.49541168 C249.76249012 370.48893896 240.7703289 370.46337434 231.77807617 370.43786621 C208.06041806 370.37993259 184.34270263 370.34778163 160.625 370.3125 C107.61875 370.209375 54.6125 370.10625 0 370 C0 247.9 0 125.8 0 0 Z " fill="#046666" transform="translate(1,2)"/>
<path d="M0 0 C13.54264178 -0.0231206 27.0852789 -0.04091364 40.62793636 -0.05181217 C46.91562024 -0.05704162 53.20329066 -0.06414039 59.4909668 -0.07543945 C65.55337723 -0.08626614 71.61577469 -0.09227637 77.67819405 -0.09487724 C79.99676277 -0.09673189 82.31533074 -0.10035325 84.63389397 -0.10573006 C87.86914508 -0.11293758 91.10434183 -0.11399106 94.33959961 -0.11352539 C95.30848114 -0.11712067 96.27736267 -0.12071594 97.27560425 -0.12442017 C98.59027428 -0.12235817 98.59027428 -0.12235817 99.9315033 -0.12025452 C101.08051825 -0.12163721 101.08051825 -0.12163721 102.25274563 -0.12304783 C104 0 104 0 105 1 C105.10316632 3.28217563 105.13574375 5.56755266 105.1418457 7.85205078 C105.14532013 8.56937378 105.14879456 9.28669678 105.15237427 10.02575684 C105.15974835 11.59121036 105.16508488 13.15667446 105.16866493 14.72214127 C105.1758327 17.2131923 105.19150874 19.70404659 105.21000671 22.19503784 C105.26240947 29.28087391 105.31028961 36.36661179 105.32592773 43.45263672 C105.33611635 47.78529807 105.36572774 52.11747787 105.40724754 56.44994736 C105.41942741 58.08983559 105.42470305 59.72979236 105.42244911 61.36972427 C105.40829539 75.05067849 107.12968839 87.82040605 113.625 100.125 C113.96563477 100.78258301 114.30626953 101.44016602 114.65722656 102.11767578 C125.21385346 121.80089145 141.47954938 134.24929679 162.4375 141.375 C177.2466621 145.37138937 192.3854987 145.27548604 207.59765625 145.15625 C209.6938497 145.14732635 211.79004653 145.13916812 213.88624573 145.13171387 C220.59096997 145.10363493 227.29543398 145.05304476 234 145 C236.24810743 144.98333301 238.49621534 144.96673132 240.74432373 144.95019531 C258.15582617 144.81892183 275.56684262 144.64275734 292.97790527 144.46356201 C295.33531557 144.43936405 297.69272728 144.41530334 300.05014038 144.39138031 C302.40213423 144.36745247 304.75412405 144.34312532 307.10610962 144.31839752 C312.91539555 144.25886427 318.72439219 144.21049342 324.53393555 144.1854248 C334.8165505 144.13531059 345.07800546 144.03565568 355.35255337 143.59854889 C359.80221929 143.41649263 364.25263875 143.29017505 368.70436287 143.17030334 C370.7744494 143.09983248 372.84385556 143.00328298 374.91131401 142.87742615 C388.1078358 142.08264166 395.8361148 143.77631983 405.88366604 152.67268372 C411.56688336 158.06288413 416.58021216 164.04295584 421.22900391 170.33789062 C427.00542068 178.09038861 433.74890916 184.88047227 440.60075378 191.67591858 C442.19353491 193.25573133 443.78299157 194.83882586 445.3717041 196.42272949 C448.74497313 199.78466861 452.12217602 203.14263819 455.5 206.5 C459.41971835 210.39597349 463.33772742 214.29363538 467.25151062 218.1955719 C468.80415238 219.74181555 470.35981403 221.2849738 471.91564941 222.82800293 C476.64270257 227.53087893 481.26220035 232.27315865 485.58058167 237.35792542 C487.73991781 239.8559846 490.07417717 242.13173146 492.4375 244.4375 C493.97657223 245.93987304 495.50344685 247.45526807 497 249 C497 249.33 497 249.66 497 250 C455.09668595 250.09173979 413.19338358 250.16213199 371.28998884 250.20426132 C366.33256727 250.20926359 361.37514589 250.21444094 356.41772461 250.21972656 C354.93744816 250.22130043 354.93744816 250.22130043 353.42726714 250.22290608 C337.48985348 250.24026768 321.55249807 250.27178174 305.61511885 250.30861118 C289.2377417 250.34613918 272.86039487 250.3682608 256.4829765 250.37635398 C246.39337663 250.38181727 236.30394148 250.39901412 226.21439237 250.43166587 C219.27696399 250.45296051 212.33961961 250.4591666 205.40216099 250.45400551 C201.4114489 250.45146673 197.42102273 250.45510051 193.4303627 250.4768219 C162.68435024 250.63564162 134.85269838 246.48047169 107 233 C106.25250488 232.63922363 105.50500977 232.27844727 104.73486328 231.90673828 C59.773527 209.90596834 25.86352177 172.25344403 9.01904297 125.06445312 C3.59312484 109.1215588 -0.19380537 92.27743452 -0.11352539 75.38085938 C-0.11367142 74.56039124 -0.11381744 73.7399231 -0.1139679 72.89459229 C-0.11327706 70.2109503 -0.10552389 67.5273797 -0.09765625 64.84375 C-0.09578912 62.97188352 -0.09436661 61.10001656 -0.09336853 59.22814941 C-0.08956659 54.32257721 -0.07975632 49.41703503 -0.06866455 44.51147461 C-0.0584003 39.4972372 -0.0538602 34.4829949 -0.04882812 29.46875 C-0.0381318 19.64582021 -0.02108352 9.82291261 0 0 Z " fill="#04383C" transform="translate(1,515)"/>
<path d="M0 0 C13.86 0 27.72 0 42 0 C42 17.49 42 34.98 42 53 C59.82 53 77.64 53 96 53 C96 67.19 96 81.38 96 96 C78.18 96 60.36 96 42 96 C42 113.49 42 130.98 42 149 C28.14 149 14.28 149 0 149 C0 131.51 0 114.02 0 96 C-17.82 96 -35.64 96 -54 96 C-54 81.81 -54 67.62 -54 53 C-36.18 53 -18.36 53 0 53 C0 35.51 0 18.02 0 0 Z " fill="#044448" transform="translate(230,432)"/>
<path d="M0 0 C5.61 0 11.22 0 17 0 C17.33 11.22 17.66 22.44 18 34 C20.97 32.02 23.94 30.04 27 28 C33.59941216 25.80019595 43.21432429 25.65960106 49.625 28.625 C55.63353672 32.32657143 59.68167568 38.2719252 61.57202148 45.05151367 C62.20416675 49.40657266 62.1218723 53.71869466 62.09765625 58.11328125 C62.0962413 59.08283249 62.09482635 60.05238373 62.09336853 61.05131531 C62.08778513 64.13840867 62.07523564 67.22542867 62.0625 70.3125 C62.05748286 72.40950416 62.05292032 74.50650946 62.04882812 76.60351562 C62.03782112 81.73570521 62.02056788 86.86784018 62 92 C56.39 92 50.78 92 45 92 C44.94392578 87.91625 44.94392578 87.91625 44.88671875 83.75 C44.84041207 81.09220679 44.78921179 78.43454933 44.73754883 75.77685547 C44.70444262 73.94002642 44.67636683 72.10309914 44.65356445 70.26611328 C44.61975369 67.61448589 44.56742707 64.96374717 44.51171875 62.3125 C44.50532883 61.50071289 44.4989389 60.68892578 44.49235535 59.85253906 C44.35153427 54.30194609 43.3605685 50.05184634 41 45 C36.48480784 41.98987189 32.69541846 41.73691783 27.375 42.5625 C23.02401223 44.41569849 21.64593799 46.10891472 19 50 C17.67925444 54.15177834 17.77264718 58.38402047 17.68359375 62.703125 C17.66281265 63.54091492 17.64203156 64.37870483 17.62062073 65.24188232 C17.5553745 67.91117356 17.49635642 70.58056098 17.4375 73.25 C17.39429106 75.06250984 17.35067601 76.87501005 17.30664062 78.6875 C17.1989564 83.12490296 17.09969793 87.56238168 17 92 C11.39 92 5.78 92 0 92 C0 61.64 0 31.28 0 0 Z " fill="#05393D" transform="translate(429,11)"/>
<path d="M0 0 C4.95 0 9.9 0 15 0 C15 5.61 15 11.22 15 17 C20.61 17 26.22 17 32 17 C32 21.95 32 26.9 32 32 C26.39 32 20.78 32 15 32 C15.11993664 36.07529387 15.24260556 40.15036093 15.37231445 44.2253418 C15.41560218 45.61135983 15.45728164 46.99742906 15.49731445 48.38354492 C15.55516584 50.37691798 15.61929776 52.37010565 15.68359375 54.36328125 C15.72025146 55.56251221 15.75690918 56.76174316 15.79467773 57.99731445 C15.87733025 61.04994349 15.87733025 61.04994349 17 64 C20.16245541 65.0541518 22.86948218 65.31275672 26.1875 65.5625 C28.105625 65.706875 30.02375 65.85125 32 66 C32 70.95 32 75.9 32 81 C10.19502682 81.55436373 10.19502682 81.55436373 4.1328125 76.41796875 C-0.99373584 70.78857716 -2.30389404 65.62572038 -2.1953125 58.07421875 C-2.1924826 57.32662796 -2.18965271 56.57903717 -2.18673706 55.80879211 C-2.17559469 53.4348612 -2.15050162 51.06131575 -2.125 48.6875 C-2.11496249 47.0722711 -2.10583799 45.45703624 -2.09765625 43.84179688 C-2.07567489 39.89438406 -2.04118657 35.94725726 -2 32 C-5.63 32 -9.26 32 -13 32 C-13 27.05 -13 22.1 -13 17 C-9.37 17 -5.74 17 -2 17 C-1.93941406 16.02417969 -1.87882812 15.04835938 -1.81640625 14.04296875 C-1.73261719 12.77066406 -1.64882813 11.49835937 -1.5625 10.1875 C-1.48128906 8.92292969 -1.40007812 7.65835937 -1.31640625 6.35546875 C-1 3 -1 3 0 0 Z " fill="#05393D" transform="translate(384,22)"/>
<path d="M0 0 C6.16250171 5.05955396 11.77695405 10.62418363 17.39746094 16.26708984 C18.99303722 17.86801389 20.5938734 19.46353684 22.1953125 21.05859375 C23.23469563 22.09863801 24.27376833 23.13899261 25.3125 24.1796875 C26.23675781 25.10507324 27.16101563 26.03045898 28.11328125 26.98388672 C30.21069238 29.13031025 32.17927757 31.35485555 34.12915039 33.63574219 C38.50791694 38.6812912 43.25328299 43.3500294 47.99990654 48.04450607 C49.65412973 49.68112184 51.30459783 51.32144285 52.95411682 52.96279907 C57.63821219 57.62260816 62.3281621 62.27649385 67.0222168 66.92626953 C69.90683802 69.78418934 72.78663419 72.64689709 75.66346931 75.51265335 C76.75846884 76.60143595 77.85536325 77.68831622 78.95416069 78.77326584 C80.48105086 80.281049 82.00178196 81.79479173 83.52124023 83.31005859 C84.38837143 84.16973236 85.25550262 85.02940613 86.14891052 85.91513062 C88 88 88 88 88 90 C89.485 90.495 89.485 90.495 91 91 C92.61328125 92.63671875 92.61328125 92.63671875 94.3125 94.6875 C97.38656536 98.31751335 100.59601162 101.67903572 104 105 C103.67 105.66 103.34 106.32 103 107 C100.30818725 104.337658 97.62237853 101.66933333 94.9375 99 C94.18533203 98.25621094 93.43316406 97.51242187 92.65820312 96.74609375 C91.91376953 96.00488281 91.16933594 95.26367188 90.40234375 94.5 C89.72679443 93.8296875 89.05124512 93.159375 88.35522461 92.46875 C86.47102155 90.49372551 84.69560381 88.4914837 82.92211914 86.41992188 C78.64092323 81.49713393 74.02872017 76.91544964 69.39924622 72.32408142 C67.80646509 70.74426867 66.21700843 69.16117414 64.6282959 67.57727051 C61.25502687 64.21533139 57.87782398 60.85736181 54.5 57.5 C50.58028165 53.60402651 46.66227258 49.70636462 42.74848938 45.8044281 C41.19584762 44.25818445 39.64018597 42.7150262 38.08435059 41.17199707 C33.38932278 36.50096658 28.82996076 31.77622822 24.52157593 26.74420166 C22.22882293 24.11599001 19.77577904 21.70015985 17.28515625 19.2578125 C16.25964349 18.24491531 15.23425618 17.23189109 14.20898438 16.21875 C12.62185955 14.65665243 11.03313471 13.09624086 9.44213867 11.53808594 C7.88550349 10.01146331 6.33499536 8.47882953 4.78515625 6.9453125 C3.86613525 6.04312988 2.94711426 5.14094727 2.00024414 4.21142578 C0 2 0 2 0 0 Z " fill="#039F9A" transform="translate(395,658)"/>
</svg>
